<svg width="39" height="14" viewBox="0 0 39 14" fill="none" xmlns="http://www.w3.org/2000/svg">
<path d="M1.01758 13.358V11.1099C1.07069 10.9801 1.2241 10.7883 1.47783 10.5346C1.73745 10.275 2.05608 9.98292 2.43371 9.65839C2.81135 9.33386 3.20374 9.00343 3.61087 8.6671C4.01801 8.32486 4.39565 8.00918 4.74378 7.72006C5.15682 7.37782 5.55806 7.02379 5.94749 6.65796C6.34283 6.28622 6.66736 5.89384 6.92108 5.4808C7.17481 5.06776 7.30167 4.62817 7.30167 4.16203C7.30167 3.58377 7.16301 3.12058 6.88568 2.77245C6.60835 2.42431 6.17466 2.25025 5.58461 2.25025C4.86474 2.25025 4.36614 2.48037 4.08882 2.94061C3.81149 3.40085 3.67283 4.00566 3.67283 4.75503H0.929074C0.929074 3.3271 1.33326 2.19714 2.14164 1.36517C2.95001 0.527287 4.11242 0.108347 5.62886 0.108347C6.60835 0.108347 7.42558 0.288314 8.08054 0.648247C8.7414 1.00818 9.23705 1.49793 9.56748 2.11748C9.89791 2.73114 10.0631 3.42151 10.0631 4.18858C10.0631 4.71373 9.96282 5.20347 9.7622 5.65781C9.56158 6.10626 9.3049 6.52225 8.99218 6.90578C8.67945 7.28342 8.34312 7.63155 7.98318 7.95018C7.62325 8.26291 7.28397 8.54613 6.96534 8.79986C6.15696 9.43712 5.51085 9.96227 5.02701 10.3753C4.54906 10.7883 4.27174 11.0834 4.19503 11.2604H9.98347V13.358H1.01758ZM15.1203 13.5705C14.2883 13.5705 13.5802 13.3905 12.9961 13.0306C12.4178 12.6706 11.9487 12.1779 11.5888 11.5525C11.2289 10.927 10.9633 10.213 10.7922 9.41056C10.627 8.60219 10.5444 7.75251 10.5444 6.86153C10.5444 5.97054 10.627 5.12086 10.7922 4.31249C10.9633 3.49821 11.2289 2.7754 11.5888 2.14404C11.9487 1.51268 12.4178 1.01703 12.9961 0.657099C13.5802 0.291264 14.2883 0.108347 15.1203 0.108347C15.9522 0.108347 16.6574 0.291264 17.2356 0.657099C17.8198 1.01703 18.2918 1.51268 18.6517 2.14404C19.0176 2.7754 19.2831 3.49821 19.4483 4.31249C19.6135 5.12086 19.6961 5.97054 19.6961 6.86153C19.6961 7.75251 19.6135 8.60219 19.4483 9.41056C19.2831 10.213 19.0176 10.927 18.6517 11.5525C18.2918 12.1779 17.8198 12.6706 17.2356 13.0306C16.6574 13.3905 15.9522 13.5705 15.1203 13.5705ZM15.1203 11.4374C15.7103 11.4374 16.1588 11.0863 16.4656 10.3842C16.7724 9.68199 16.9258 8.50778 16.9258 6.86153C16.9258 5.21527 16.7724 4.04106 16.4656 3.3389C16.1588 2.63083 15.7103 2.2768 15.1203 2.2768C14.5302 2.2768 14.0818 2.63083 13.7749 3.3389C13.4681 4.04106 13.3147 5.21527 13.3147 6.86153C13.3147 8.51368 13.4681 9.69084 13.7749 10.393C14.0818 11.0893 14.5302 11.4374 15.1203 11.4374ZM20.0268 13.358V11.1099C20.0799 10.9801 20.2333 10.7883 20.487 10.5346C20.7467 10.275 21.0653 9.98292 21.4429 9.65839C21.8206 9.33386 22.213 9.00343 22.6201 8.6671C23.0272 8.32486 23.4049 8.00918 23.753 7.72006C24.166 7.37782 24.5673 7.02379 24.9567 6.65796C25.352 6.28622 25.6766 5.89384 25.9303 5.4808C26.184 5.06776 26.3109 4.62817 26.3109 4.16203C26.3109 3.58377 26.1722 3.12058 25.8949 2.77245C25.6176 2.42431 25.1839 2.25025 24.5938 2.25025C23.874 2.25025 23.3754 2.48037 23.098 2.94061C22.8207 3.40085 22.6821 4.00566 22.6821 4.75503H19.9383C19.9383 3.3271 20.3425 2.19714 21.1509 1.36517C21.9592 0.527287 23.1216 0.108347 24.6381 0.108347C25.6176 0.108347 26.4348 0.288314 27.0898 0.648247C27.7506 1.00818 28.2463 1.49793 28.5767 2.11748C28.9071 2.73114 29.0723 3.42151 29.0723 4.18858C29.0723 4.71373 28.972 5.20347 28.7714 5.65781C28.5708 6.10626 28.3141 6.52225 28.0014 6.90578C27.6887 7.28342 27.3523 7.63155 26.9924 7.95018C26.6325 8.26291 26.2932 8.54613 25.9746 8.79986C25.1662 9.43712 24.5201 9.96227 24.0362 10.3753C23.5583 10.7883 23.281 11.0834 23.2042 11.2604H28.9927V13.358H20.0268ZM29.7129 13.358V11.1099C29.766 10.9801 29.9194 10.7883 30.1732 10.5346C30.4328 10.275 30.7514 9.98292 31.1291 9.65839C31.5067 9.33386 31.8991 9.00343 32.3062 8.6671C32.7134 8.32486 33.091 8.00918 33.4391 7.72006C33.8522 7.37782 34.2534 7.02379 34.6428 6.65796C35.0382 6.28622 35.3627 5.89384 35.6164 5.4808C35.8701 5.06776 35.997 4.62817 35.997 4.16203C35.997 3.58377 35.8583 3.12058 35.581 2.77245C35.3037 2.42431 34.87 2.25025 34.2799 2.25025C33.5601 2.25025 33.0615 2.48037 32.7842 2.94061C32.5068 3.40085 32.3682 4.00566 32.3682 4.75503H29.6244C29.6244 3.3271 30.0286 2.19714 30.837 1.36517C31.6454 0.527287 32.8078 0.108347 34.3242 0.108347C35.3037 0.108347 36.1209 0.288314 36.7759 0.648247C37.4367 1.00818 37.9324 1.49793 38.2628 2.11748C38.5933 2.73114 38.7585 3.42151 38.7585 4.18858C38.7585 4.71373 38.6582 5.20347 38.4575 5.65781C38.2569 6.10626 38.0002 6.52225 37.6875 6.90578C37.3748 7.28342 37.0385 7.63155 36.6785 7.95018C36.3186 8.26291 35.9793 8.54613 35.6607 8.79986C34.8523 9.43712 34.2062 9.96227 33.7223 10.3753C33.2444 10.7883 32.9671 11.0834 32.8904 11.2604H38.6788V13.358H29.7129Z" fill="#E31E25"/>
</svg>
